<mxfile host="app.diagrams.net" modified="2021-02-07T09:07:25.136Z" agent="5.0 (Windows NT 10.0; Win64; x64) AppleWebKit/537.36 (KHTML, like Gecko) Chrome/88.0.4324.104 Safari/537.36" etag="dL1pOfQTKJrCmi6hK-4k" version="14.2.6" type="github">
  <diagram id="dqOgUIsS_CFZmMrKDvl1" name="Page-1">
    <mxGraphModel dx="782" dy="413" grid="1" gridSize="10" guides="1" tooltips="1" connect="1" arrows="1" fold="1" page="1" pageScale="1" pageWidth="827" pageHeight="1169" math="0" shadow="0">
      <root>
        <mxCell id="0" />
        <mxCell id="1" parent="0" />
        <mxCell id="8H2Ad3p1k1n_BKqMPf46-70" value="" style="rounded=0;whiteSpace=wrap;html=1;" vertex="1" parent="1">
          <mxGeometry x="50" y="510" width="330" height="610" as="geometry" />
        </mxCell>
        <mxCell id="8H2Ad3p1k1n_BKqMPf46-68" value="" style="rounded=0;whiteSpace=wrap;html=1;" vertex="1" parent="1">
          <mxGeometry x="410" y="680" width="315" height="580" as="geometry" />
        </mxCell>
        <mxCell id="8H2Ad3p1k1n_BKqMPf46-66" value="" style="ellipse;whiteSpace=wrap;html=1;" vertex="1" parent="1">
          <mxGeometry x="390" y="430" width="250" height="240" as="geometry" />
        </mxCell>
        <mxCell id="8H2Ad3p1k1n_BKqMPf46-65" value="" style="edgeStyle=orthogonalEdgeStyle;rounded=0;orthogonalLoop=1;jettySize=auto;html=1;" edge="1" parent="1" source="8H2Ad3p1k1n_BKqMPf46-1" target="8H2Ad3p1k1n_BKqMPf46-63">
          <mxGeometry relative="1" as="geometry" />
        </mxCell>
        <mxCell id="8H2Ad3p1k1n_BKqMPf46-1" value="php传递推荐数据至MQ" style="rounded=0;whiteSpace=wrap;html=1;" vertex="1" parent="1">
          <mxGeometry x="430" y="585" width="120" height="60" as="geometry" />
        </mxCell>
        <mxCell id="8H2Ad3p1k1n_BKqMPf46-6" style="edgeStyle=orthogonalEdgeStyle;rounded=0;orthogonalLoop=1;jettySize=auto;html=1;entryX=0.5;entryY=0;entryDx=0;entryDy=0;" edge="1" parent="1" source="8H2Ad3p1k1n_BKqMPf46-2" target="8H2Ad3p1k1n_BKqMPf46-5">
          <mxGeometry relative="1" as="geometry" />
        </mxCell>
        <mxCell id="8H2Ad3p1k1n_BKqMPf46-9" value="" style="edgeStyle=orthogonalEdgeStyle;rounded=0;orthogonalLoop=1;jettySize=auto;html=1;" edge="1" parent="1" source="8H2Ad3p1k1n_BKqMPf46-2" target="8H2Ad3p1k1n_BKqMPf46-8">
          <mxGeometry relative="1" as="geometry" />
        </mxCell>
        <mxCell id="8H2Ad3p1k1n_BKqMPf46-2" value="tags_2是否有值？" style="rhombus;whiteSpace=wrap;html=1;" vertex="1" parent="1">
          <mxGeometry x="430" y="800" width="120" height="100" as="geometry" />
        </mxCell>
        <mxCell id="8H2Ad3p1k1n_BKqMPf46-5" value="更新redis" style="rounded=0;whiteSpace=wrap;html=1;" vertex="1" parent="1">
          <mxGeometry x="580" y="890" width="120" height="60" as="geometry" />
        </mxCell>
        <mxCell id="8H2Ad3p1k1n_BKqMPf46-7" value="有" style="text;html=1;strokeColor=none;fillColor=none;align=center;verticalAlign=middle;whiteSpace=wrap;rounded=0;" vertex="1" parent="1">
          <mxGeometry x="570" y="810" width="40" height="20" as="geometry" />
        </mxCell>
        <mxCell id="8H2Ad3p1k1n_BKqMPf46-11" value="" style="edgeStyle=orthogonalEdgeStyle;rounded=0;orthogonalLoop=1;jettySize=auto;html=1;" edge="1" parent="1" source="8H2Ad3p1k1n_BKqMPf46-8" target="8H2Ad3p1k1n_BKqMPf46-10">
          <mxGeometry relative="1" as="geometry" />
        </mxCell>
        <mxCell id="8H2Ad3p1k1n_BKqMPf46-8" value="获取影集title，story重新训练" style="rounded=0;whiteSpace=wrap;html=1;" vertex="1" parent="1">
          <mxGeometry x="430" y="950" width="120" height="60" as="geometry" />
        </mxCell>
        <mxCell id="8H2Ad3p1k1n_BKqMPf46-13" value="" style="edgeStyle=orthogonalEdgeStyle;rounded=0;orthogonalLoop=1;jettySize=auto;html=1;" edge="1" parent="1" source="8H2Ad3p1k1n_BKqMPf46-10" target="8H2Ad3p1k1n_BKqMPf46-12">
          <mxGeometry relative="1" as="geometry" />
        </mxCell>
        <mxCell id="8H2Ad3p1k1n_BKqMPf46-10" value="训练结果加入策略结果（php的原创数据以及基于mid打标签）" style="rounded=0;whiteSpace=wrap;html=1;" vertex="1" parent="1">
          <mxGeometry x="430" y="1060" width="120" height="60" as="geometry" />
        </mxCell>
        <mxCell id="8H2Ad3p1k1n_BKqMPf46-14" style="edgeStyle=orthogonalEdgeStyle;rounded=0;orthogonalLoop=1;jettySize=auto;html=1;" edge="1" parent="1" source="8H2Ad3p1k1n_BKqMPf46-12" target="8H2Ad3p1k1n_BKqMPf46-5">
          <mxGeometry relative="1" as="geometry" />
        </mxCell>
        <mxCell id="8H2Ad3p1k1n_BKqMPf46-12" value="存入推荐库tags_2" style="rounded=0;whiteSpace=wrap;html=1;" vertex="1" parent="1">
          <mxGeometry x="430" y="1160" width="120" height="60" as="geometry" />
        </mxCell>
        <mxCell id="8H2Ad3p1k1n_BKqMPf46-28" value="" style="edgeStyle=orthogonalEdgeStyle;rounded=0;orthogonalLoop=1;jettySize=auto;html=1;" edge="1" parent="1" source="8H2Ad3p1k1n_BKqMPf46-27" target="8H2Ad3p1k1n_BKqMPf46-1">
          <mxGeometry relative="1" as="geometry" />
        </mxCell>
        <mxCell id="8H2Ad3p1k1n_BKqMPf46-27" value="用户对影集产生行为触发" style="rounded=0;whiteSpace=wrap;html=1;" vertex="1" parent="1">
          <mxGeometry x="430" y="480" width="120" height="60" as="geometry" />
        </mxCell>
        <mxCell id="8H2Ad3p1k1n_BKqMPf46-33" value="" style="edgeStyle=orthogonalEdgeStyle;rounded=0;orthogonalLoop=1;jettySize=auto;html=1;" edge="1" parent="1" source="8H2Ad3p1k1n_BKqMPf46-29" target="8H2Ad3p1k1n_BKqMPf46-32">
          <mxGeometry relative="1" as="geometry" />
        </mxCell>
        <mxCell id="8H2Ad3p1k1n_BKqMPf46-29" value="用户新制作影集或修改" style="rounded=0;whiteSpace=wrap;html=1;" vertex="1" parent="1">
          <mxGeometry x="70" y="650" width="120" height="60" as="geometry" />
        </mxCell>
        <mxCell id="8H2Ad3p1k1n_BKqMPf46-31" value="" style="edgeStyle=orthogonalEdgeStyle;rounded=0;orthogonalLoop=1;jettySize=auto;html=1;" edge="1" parent="1" source="8H2Ad3p1k1n_BKqMPf46-30" target="8H2Ad3p1k1n_BKqMPf46-29">
          <mxGeometry relative="1" as="geometry" />
        </mxCell>
        <mxCell id="8H2Ad3p1k1n_BKqMPf46-30" value="监听" style="triangle;whiteSpace=wrap;html=1;" vertex="1" parent="1">
          <mxGeometry x="100" y="540" width="60" height="80" as="geometry" />
        </mxCell>
        <mxCell id="8H2Ad3p1k1n_BKqMPf46-40" value="" style="edgeStyle=orthogonalEdgeStyle;rounded=0;orthogonalLoop=1;jettySize=auto;html=1;" edge="1" parent="1" source="8H2Ad3p1k1n_BKqMPf46-32" target="8H2Ad3p1k1n_BKqMPf46-39">
          <mxGeometry relative="1" as="geometry" />
        </mxCell>
        <mxCell id="8H2Ad3p1k1n_BKqMPf46-32" value="调用update_tags2更新推荐库tags_2" style="rounded=0;whiteSpace=wrap;html=1;" vertex="1" parent="1">
          <mxGeometry x="70" y="760" width="120" height="60" as="geometry" />
        </mxCell>
        <mxCell id="8H2Ad3p1k1n_BKqMPf46-38" value="无" style="text;html=1;strokeColor=none;fillColor=none;align=center;verticalAlign=middle;whiteSpace=wrap;rounded=0;" vertex="1" parent="1">
          <mxGeometry x="430" y="910" width="40" height="20" as="geometry" />
        </mxCell>
        <mxCell id="8H2Ad3p1k1n_BKqMPf46-42" value="" style="edgeStyle=orthogonalEdgeStyle;rounded=0;orthogonalLoop=1;jettySize=auto;html=1;" edge="1" parent="1" source="8H2Ad3p1k1n_BKqMPf46-39" target="8H2Ad3p1k1n_BKqMPf46-41">
          <mxGeometry relative="1" as="geometry" />
        </mxCell>
        <mxCell id="8H2Ad3p1k1n_BKqMPf46-45" style="edgeStyle=orthogonalEdgeStyle;rounded=0;orthogonalLoop=1;jettySize=auto;html=1;entryX=0.5;entryY=0;entryDx=0;entryDy=0;" edge="1" parent="1" source="8H2Ad3p1k1n_BKqMPf46-39" target="8H2Ad3p1k1n_BKqMPf46-44">
          <mxGeometry relative="1" as="geometry" />
        </mxCell>
        <mxCell id="8H2Ad3p1k1n_BKqMPf46-39" value="影集是否存在推荐库？" style="rhombus;whiteSpace=wrap;html=1;" vertex="1" parent="1">
          <mxGeometry x="60" y="860" width="140" height="120" as="geometry" />
        </mxCell>
        <mxCell id="8H2Ad3p1k1n_BKqMPf46-41" value="存入成功" style="rounded=0;whiteSpace=wrap;html=1;" vertex="1" parent="1">
          <mxGeometry x="70" y="1040" width="120" height="60" as="geometry" />
        </mxCell>
        <mxCell id="8H2Ad3p1k1n_BKqMPf46-43" value="是" style="text;html=1;strokeColor=none;fillColor=none;align=center;verticalAlign=middle;whiteSpace=wrap;rounded=0;" vertex="1" parent="1">
          <mxGeometry x="70" y="1000" width="40" height="20" as="geometry" />
        </mxCell>
        <mxCell id="8H2Ad3p1k1n_BKqMPf46-44" value="存入失败" style="rounded=0;whiteSpace=wrap;html=1;" vertex="1" parent="1">
          <mxGeometry x="210" y="960" width="120" height="60" as="geometry" />
        </mxCell>
        <mxCell id="8H2Ad3p1k1n_BKqMPf46-47" value="否" style="text;html=1;strokeColor=none;fillColor=none;align=center;verticalAlign=middle;whiteSpace=wrap;rounded=0;" vertex="1" parent="1">
          <mxGeometry x="210" y="880" width="40" height="20" as="geometry" />
        </mxCell>
        <mxCell id="8H2Ad3p1k1n_BKqMPf46-64" value="" style="edgeStyle=orthogonalEdgeStyle;rounded=0;orthogonalLoop=1;jettySize=auto;html=1;" edge="1" parent="1" source="8H2Ad3p1k1n_BKqMPf46-63" target="8H2Ad3p1k1n_BKqMPf46-2">
          <mxGeometry relative="1" as="geometry" />
        </mxCell>
        <mxCell id="8H2Ad3p1k1n_BKqMPf46-63" value="mq调用album-rank" style="rounded=0;whiteSpace=wrap;html=1;" vertex="1" parent="1">
          <mxGeometry x="430" y="690" width="120" height="60" as="geometry" />
        </mxCell>
        <mxCell id="8H2Ad3p1k1n_BKqMPf46-67" value="春晖" style="text;html=1;strokeColor=none;fillColor=none;align=center;verticalAlign=middle;whiteSpace=wrap;rounded=0;" vertex="1" parent="1">
          <mxGeometry x="600" y="550" width="40" height="20" as="geometry" />
        </mxCell>
        <mxCell id="8H2Ad3p1k1n_BKqMPf46-69" value="欣瑞" style="text;html=1;strokeColor=none;fillColor=none;align=center;verticalAlign=middle;whiteSpace=wrap;rounded=0;" vertex="1" parent="1">
          <mxGeometry x="660" y="1230" width="40" height="20" as="geometry" />
        </mxCell>
        <mxCell id="8H2Ad3p1k1n_BKqMPf46-71" value="俊鑫" style="text;html=1;strokeColor=none;fillColor=none;align=center;verticalAlign=middle;whiteSpace=wrap;rounded=0;" vertex="1" parent="1">
          <mxGeometry x="290" y="1080" width="40" height="20" as="geometry" />
        </mxCell>
      </root>
    </mxGraphModel>
  </diagram>
</mxfile>
